<svg xmlns="http://www.w3.org/2000/svg" viewBox="0 0 473.09 473.09"><title>codepen</title><polygon points="115.43 215.51 115.43 257.58 146.88 236.55 115.43 215.51"/><polygon points="223.98 184.98 223.98 126.35 125.49 192 169.48 221.43 223.98 184.98"/><polygon points="347.61 192 249.12 126.35 249.12 184.98 303.61 221.43 347.61 192"/><polygon points="125.49 281.1 223.98 346.75 223.98 288.12 169.48 251.68 125.49 281.1"/><polygon points="249.12 288.12 249.12 346.75 347.61 281.1 303.61 251.68 249.12 288.12"/><polygon points="236.55 206.81 192.09 236.55 236.55 266.29 281.01 236.55 236.55 206.81"/><path d="M251.07,11.15C120.43,11.15,14.53,117.06,14.53,247.7s105.9,236.55,236.54,236.55S487.62,378.35,487.62,247.7,381.72,11.15,251.07,11.15ZM397.33,292.27a12.78,12.78,0,0,1-.11,1.64c0,.18-.07.37-.1.54-.07.36-.13.71-.22,1.06s-.13.4-.2.6-.2.62-.32.93-.19.41-.28.61-.27.56-.43.83-.24.39-.36.58a8,8,0,0,1-.53.76,5.79,5.79,0,0,1-.43.55c-.2.23-.4.46-.62.68l-.5.49q-.35.31-.72.6c-.18.15-.37.29-.57.43a1.59,1.59,0,0,1-.21.15L258.05,391.85a12.53,12.53,0,0,1-14,0L110.41,302.72l-.21-.15c-.19-.14-.38-.28-.56-.43s-.49-.39-.72-.6l-.5-.49c-.22-.22-.42-.45-.63-.68s-.29-.35-.43-.55-.36-.5-.53-.76l-.36-.58c-.15-.27-.29-.55-.42-.83s-.2-.4-.28-.61-.23-.62-.33-.93-.14-.4-.19-.6a9.49,9.49,0,0,1-.22-1.06c0-.17-.08-.36-.1-.54a11.21,11.21,0,0,1-.12-1.64V203.14a11.21,11.21,0,0,1,.12-1.64c0-.18.07-.36.1-.55a9.81,9.81,0,0,1,.22-1,6.17,6.17,0,0,1,.19-.61c.1-.31.2-.61.33-.91s.18-.42.28-.62.27-.56.42-.83l.36-.58c.17-.27.35-.52.53-.77l.43-.54c.21-.23.41-.46.63-.68s.33-.34.5-.49.47-.41.72-.6.37-.29.56-.43l.21-.16L244.1,103.56a12.56,12.56,0,0,1,14,0l133.68,89.12c.08,0,.14.11.21.16s.39.28.57.43.49.39.72.6.33.32.5.49.42.45.62.68.3.36.43.54a8.09,8.09,0,0,1,.53.77c.12.19.25.38.36.58s.29.55.43.83.2.41.28.62.22.6.32.91a6.21,6.21,0,0,1,.2.61c.09.35.15.7.22,1,0,.19.07.37.1.55a12.78,12.78,0,0,1,.11,1.64Z" transform="translate(-14.53 -11.15)"/><polygon points="357.67 257.58 357.67 215.51 326.22 236.55 357.67 257.58"/></svg>